<?xml version="1.0" encoding="utf-8"?>
<!-- Generator: Adobe Illustrator 17.0.0, SVG Export Plug-In . SVG Version: 6.00 Build 0)  -->
<!DOCTYPE svg PUBLIC "-//W3C//DTD SVG 1.1//EN" "http://www.w3.org/Graphics/SVG/1.1/DTD/svg11.dtd">
<svg version="1.1" id="Layer_1" xmlns="http://www.w3.org/2000/svg" xmlns:xlink="http://www.w3.org/1999/xlink" x="0px" y="0px"
	 width="50px" height="50px" viewBox="0 0 50 50" enable-background="new 0 0 50 50" xml:space="preserve">
<g>
	<path fill="#009AD7" d="M24.018,0.05L24.018,0.05c-5.12,0-8.102,3.841-8.102,8.722c0,6.524,6.572,15.504,8.102,17.728l0,0
		c1.499-2.223,8.101-11.243,8.101-17.728C32.119,3.891,29.136,0.05,24.018,0.05z M24.018,12.445c-2.277,0-4.126-1.846-4.126-4.125
		c0-2.277,1.849-4.125,4.126-4.125c2.278,0,4.122,1.847,4.122,4.125C28.14,10.599,26.296,12.445,24.018,12.445z"/>
	<path fill="#00BCDF" d="M37.086,39.019c-2.605-4.869-6.754-7.289-10.728-8.641c-0.303-0.118-0.667-0.242-1.103-0.37
		c-1.274-0.375-2.552-0.685-4.188-0.828c-3.955-0.346-8.816,0.215-12.476,2.305c-3.027,1.73-6.838,5.639-5.417,9.584
		c1.331,3.7,6.663,3.128,9.46-0.379c1.859-2.332,2.805-5.029,4.764-7.309c1.555-1.808,2.888-2.837,4.637-3.29
		c2.179-0.562,3.438,1.356,3.911,2.302c0.49,0.979,0.835,2.516,0.929,4.324c0.078,1.48,0.083,3.479,0.027,6.292
		c-0.091,4.554,2.632,7.832,7.419,6.493C37.584,48.589,39.527,43.582,37.086,39.019z"/>
	<path fill="#85D3E8" d="M38.475,13.517c-3.455,1.873-5.027,7.594-8.752,11.558c-0.795,0.846-3.546,3.6-6.371,2.871
		c-3.358-0.84-6.764-6.449-11.673-8.25c-2.478-0.914-6.662-1.158-8.403,1.737c-1.632,2.717,0.684,5.673,5.238,5.448
		c3.126-0.155,6.823,0.07,10.234,0.55c2.369,0.332,3.524,0.856,5.829,1.234c0.732,0.155,1.586,0.283,2.52,0.346
		c11.142,0.733,19.474-3.664,20.854-9.095C49.551,13.64,43.509,10.786,38.475,13.517z"/>
</g>
</svg>
